<svg xmlns="http://www.w3.org/2000/svg" width="410" height="404" viewBox="0 0 410 404" fill="none"><g clip-path="url(#clip0_17_39)"><path d="M399.641 59.5246L215.643 388.545C213.478 392.459 207.759 392.541 205.483 388.702L9.67163 59.5974C7.1385 55.3084 10.6754 50.0313 15.5051 50.8166L205.056 81.0748C205.843 81.2026 206.643 81.199 207.429 81.0639L393.724 50.8056C398.535 50.012 402.099 55.2195 399.59 59.5154L399.641 59.5246Z" fill="url(#paint0_linear_17_39)"/><path d="M292.965 1.5744L156.801 26.4516C155.563 26.6792 154.448 27.3275 153.67 28.2739C152.892 29.2203 152.504 30.4046 152.578 31.6077L164.694 231.951C164.774 233.271 165.337 234.522 166.279 235.483C167.221 236.443 168.473 237.061 169.793 237.222L226.674 244.173C228.108 244.35 229.553 243.924 230.638 243.001C231.724 242.078 232.356 240.746 232.395 239.334L236.15 116.9C236.175 116.094 236.362 115.3 236.701 114.571C237.04 113.842 237.522 113.192 238.119 112.66C238.716 112.127 239.415 111.724 240.18 111.478C240.945 111.233 241.761 111.15 242.568 111.236L283.753 115.598C285.47 115.781 287.118 114.941 287.98 113.437C288.841 111.934 288.795 110.05 287.857 108.597L262.472 68.4641C262.055 67.8101 261.827 67.057 261.814 66.2858C261.801 65.5146 262.004 64.7529 262.4 64.0873C262.796 63.4217 263.37 62.8754 264.064 62.5114C264.758 62.1473 265.544 61.9782 266.333 62.0218L300.773 63.8938C302.361 63.9776 303.878 63.3268 304.868 62.1221C305.859 60.9173 306.219 59.2753 305.837 57.7443L296.919 20.5891C296.719 19.7495 296.33 18.9654 295.78 18.2946C295.229 17.6238 294.53 17.0832 293.735 16.7062C292.94 16.3293 292.07 16.1254 291.192 16.1079C290.314 16.0904 289.442 16.2596 288.644 16.6037C288.431 16.6915 288.224 16.7916 288.024 16.9036L265.405 29.7742C264.642 30.1981 263.807 30.5004 262.941 30.6685C262.075 30.8367 261.189 30.8687 260.317 30.7637C259.445 30.6587 258.598 30.4182 257.81 30.0541C257.022 29.69 256.304 29.2067 255.689 28.6235C255.074 28.0402 254.57 27.3659 254.2 26.6332C253.831 25.9006 253.6 25.1214 253.516 24.3303L252.134 11.8086C251.96 10.1713 251.137 8.66011 249.833 7.63611C248.529 6.61211 246.834 6.15845 245.151 6.38045L194.636 13.1375" fill="url(#paint1_linear_17_39)"/><defs><linearGradient id="paint0_linear_17_39" x1="6.00017" y1="32.9999" x2="235" y2="344" gradientUnits="userSpaceOnUse"><stop stop-color="#41D1FF"/><stop offset="1" stop-color="#BD34FE"/></linearGradient><linearGradient id="paint1_linear_17_39" x1="194.651" y1="8.00129" x2="236.076" y2="222.304" gradientUnits="userSpaceOnUse"><stop stop-color="#FFEA83"/><stop offset="0.0833333" stop-color="#FFDD35"/><stop offset="1" stop-color="#FFA800"/></linearGradient><clipPath id="clip0_17_39"><rect width="410" height="404" fill="white"/></clipPath></defs></svg>